<svg xmlns="http://www.w3.org/2000/svg" width="302.535" height="38.269" viewBox="0 0 302.535 38.269">
  <g id="그룹_35" data-name="그룹 35" transform="translate(-1298 1279.123)" opacity="0.66">
    <path id="패스_216" data-name="패스 216" d="M45.3,949.836H61.929a.762.762,0,0,0,.762-.762v-9.148a.762.762,0,0,0-.762-.762H39.657a1.257,1.257,0,0,0-.889.368l-5.542,5.543-5.543-5.543a1.256,1.256,0,0,0-.888-.368H6.869a1.216,1.216,0,0,0-.883.38L.334,945.5a1.218,1.218,0,0,0-.334.838v25.666a.762.762,0,0,0,.762.762H9.91a.762.762,0,0,0,.762-.762V951.616a1.256,1.256,0,0,1,1.257-1.256h9.746a1.256,1.256,0,0,1,1.257,1.256v20.389a.762.762,0,0,0,.762.762H32.84a.762.762,0,0,0,.762-.762v-4.87l5.584,5.3a1.218,1.218,0,0,0,.838.334H61.929a.762.762,0,0,0,.762-.762v-9.148a.762.762,0,0,0-.762-.762H45.3a1.256,1.256,0,0,1-1.256-1.256v-9.746a1.256,1.256,0,0,1,1.256-1.256" transform="translate(1298 -2215.954)" fill="#fff"/>
    <rect id="사각형_11" data-name="사각형 11" width="2.979" height="38.269" transform="translate(1379.438 -1279.123)" fill="#fff"/>
    <path id="패스_217" data-name="패스 217" d="M339.923,974.236v1.829h-6.15v1.516h-2.3v-1.516H325.41v-1.829Zm-6.115,4.286c0,1.289,1.551,2.648,5.105,2.927l-.732,1.725c-2.7-.244-4.6-1.15-5.576-2.4-.958,1.254-2.84,2.178-5.523,2.4l-.749-1.725c3.5-.3,5.105-1.708,5.105-2.945v-.3h2.37Zm-6.952-8.137c0-1.9,2.248-3.049,5.8-3.049s5.82,1.15,5.82,3.049-2.265,3.014-5.82,3.014-5.8-1.115-5.8-3.014m2.37,0c0,.854,1.237,1.289,3.432,1.289,2.213,0,3.45-.436,3.45-1.289,0-.889-1.237-1.307-3.45-1.307-2.2,0-3.432.418-3.432,1.307" transform="translate(1075.69 -2235.2)" fill="#fff"/>
    <path id="패스_218" data-name="패스 218" d="M390.54,977.734H376.009v-1.847H390.54Zm-10.576,4.217h9.06V983.8H377.647v-4.791h2.317Zm8.973-7.7H377.8v-5.593h2.3v3.764h8.834Z" transform="translate(1041.122 -2236.102)" fill="#fff"/>
    <path id="패스_219" data-name="패스 219" d="M432.242,975.187a17.028,17.028,0,0,1-3.659.279h-.819v-7.457h4.147v1.812h-1.952v3.746a15.4,15.4,0,0,0,2.108-.244Zm8.276,4.582c0,1.969-2.126,3.136-5.558,3.136-3.45,0-5.576-1.167-5.576-3.136s2.126-3.136,5.576-3.136c3.432,0,5.558,1.168,5.558,3.136m-2.317,0c0-.924-1.133-1.359-3.241-1.359s-3.258.435-3.258,1.359c0,.906,1.15,1.341,3.258,1.341s3.241-.436,3.241-1.341m-.732-4.617a14.38,14.38,0,0,1-3.9.3h-.854v-7.44h4.269v1.812H434.89v3.746a11.533,11.533,0,0,0,2.4-.262Zm4.687-4.443v1.882H440.4v3.816h-2.3v-9.565h2.3v3.868Z" transform="translate(1005.765 -2234.862)" fill="#fff"/>
    <path id="패스_220" data-name="패스 220" d="M491.763,975.466v1.83H477.319v-1.83h5.366v-1.812h2.3v1.812Zm-3.92-4.408c.017-.331.017-.662.017-.976h-8.938V968.27h11.255v1.342a25.562,25.562,0,0,1-.383,5.053l-2.3-.14c.1-.645.192-1.237.244-1.777l-8.973.383-.261-1.864Zm2.23,9.931c0,1.847-2.091,2.875-5.576,2.875s-5.558-1.028-5.558-2.875,2.073-2.892,5.558-2.892,5.576,1.045,5.576,2.892m-2.335,0c0-.784-1.08-1.115-3.241-1.115s-3.241.331-3.241,1.115,1.08,1.133,3.241,1.133,3.241-.349,3.241-1.133" transform="translate(971.91 -2235.838)" fill="#fff"/>
    <path id="패스_221" data-name="패스 221" d="M547.863,974.594c-2.439,0-4.269-1.516-4.269-3.659,0-2.108,1.829-3.642,4.269-3.642,2.457,0,4.269,1.533,4.269,3.642,0,2.143-1.812,3.659-4.269,3.659m-.052,6.325h8.747V982.7H545.528v-4.478h8.311v-.958H545.51v-1.777H556.1v4.391H547.81Zm.052-8.172a1.819,1.819,0,1,0-2.056-1.812,1.829,1.829,0,0,0,2.056,1.812m10.35-2.823v1.882H556.1v3.049h-2.3v-8.015h2.3v3.084Z" transform="translate(926.633 -2234.862)" fill="#fff"/>
    <path id="패스_222" data-name="패스 222" d="M601.042,977.124c.627-.052,1.254-.087,1.847-.174l.139,1.673a57.7,57.7,0,0,1-9.635.644l-.244-1.882h1.795v-7.178h-1.377V968.36h8.851v1.847h-1.377Zm-3.868.209,1.655-.052v-7.074h-1.655Zm11.081-2.492H605.92v8.1h-2.3V966.9h2.3v6.046h2.335Z" transform="translate(892.779 -2234.899)" fill="#fff"/>
    <path id="패스_223" data-name="패스 223" d="M649.419,977.258a40.2,40.2,0,0,0,6.725-.523l.244,1.865a44.038,44.038,0,0,1-7.875.557h-1.446v-6.6h5.21v-2.561h-5.227v-1.83h7.579v6.2h-5.21Zm10.141,5.627h-2.3v-16.1h2.3Z" transform="translate(855.956 -2234.824)" fill="#fff"/>
    <path id="패스_224" data-name="패스 224" d="M703.408,976.41v1.377h4.373v5.436H696.7v-5.436h4.408V976.41h-6.1V974.58h14.5v1.829Zm-6.952-5.715c0-1.934,2.265-3.084,5.8-3.084s5.819,1.15,5.819,3.084c0,1.917-2.282,3.067-5.819,3.067s-5.8-1.15-5.8-3.067m2.369,0c0,.889,1.255,1.341,3.433,1.341,2.2,0,3.45-.453,3.45-1.341,0-.906-1.254-1.341-3.45-1.341-2.178,0-3.433.436-3.433,1.341m6.691,8.886h-6.569v1.847h6.569Z" transform="translate(823.191 -2235.387)" fill="#fff"/>
    <path id="패스_225" data-name="패스 225" d="M775,966.787v16.1h-2.3v-8.45h-2.666c-.244,3.067-1.882,4.948-4.112,4.948-2.387,0-4.147-2.213-4.147-5.75,0-3.52,1.76-5.715,4.147-5.715,2.161,0,3.781,1.76,4.094,4.652H772.7v-5.785Zm-7.109,6.847c0-2.37-.784-3.642-1.969-3.642-1.167,0-1.952,1.272-1.952,3.642,0,2.387.784,3.659,1.952,3.659,1.185,0,1.969-1.272,1.969-3.659" transform="translate(777.575 -2234.825)" fill="#fff"/>
    <path id="패스_226" data-name="패스 226" d="M823.287,976.128a39.86,39.86,0,0,1-7.719.522h-1.411v-5.332h5.105v-1.585H814.14v-1.847h7.387v5.14h-5.1V974.8a35.63,35.63,0,0,0,6.638-.505Zm3.763,4.652v1.83H815.917v-4.931h2.3v3.1Zm-.4-2.108h-2.3V966.841h2.3Z" transform="translate(741.805 -2234.862)" fill="#fff"/>
    <path id="패스_227" data-name="패스 227" d="M872.073,973.634c0,3.537-1.794,5.75-4.216,5.75s-4.216-2.213-4.216-5.75c0-3.52,1.794-5.715,4.216-5.715s4.216,2.2,4.216,5.715m-6.22,0c0,2.387.819,3.659,2,3.659s2-1.272,2-3.659c0-2.37-.819-3.642-2-3.642s-2,1.272-2,3.642m10.628,9.251h-2.3v-16.1h2.3Z" transform="translate(707.988 -2234.824)" fill="#fff"/>
    <path id="패스_228" data-name="패스 228" d="M921.809,975.4a6.028,6.028,0,0,1-3.781-3,6.245,6.245,0,0,1-3.9,3.276l-1.15-1.812a4.832,4.832,0,0,0,3.833-4.3H913.6V967.75h8.729v1.812h-3.154c.122,1.69,1.307,3.345,3.746,4.06Zm2.161.871h2.282v6.464H915.589V976.27h2.282v1.464h6.1Zm0,3.224h-6.1V980.9h6.1Zm2.282-3.9h-2.317V966.9h2.317Z" transform="translate(674.284 -2234.899)" fill="#fff"/>
  </g>
</svg>
